<svg xmlns="http://www.w3.org/2000/svg" id="round-notifications-24px" width="24" height="24" viewBox="0 0 24 24">
    <defs>
        <style>
            .cls-1{fill:none}.cls-2{fill:#fefefe}
        </style>
    </defs>
    <path id="Path_2458" d="M0 0h24v24H0z" class="cls-1" data-name="Path 2458"/>
    <path id="Path_2459" d="M12 22a2.006 2.006 0 0 0 2-2h-4a2 2 0 0 0 2 2zm6-6v-5c0-3.07-1.64-5.64-4.5-6.32V4a1.5 1.5 0 0 0-3 0v.68C7.63 5.36 6 7.92 6 11v5l-1.29 1.29a1 1 0 0 0 .7 1.71h13.17a1 1 0 0 0 .71-1.71z" class="cls-2" data-name="Path 2459"/>
</svg>
